<?xml version="1.0" encoding="utf-8"?><svg xmlns="http://www.w3.org/2000/svg" xmlns:xlink="http://www.w3.org/1999/xlink" width="2017" height="903" preserveAspectRatio="xMidYMid" viewBox="0 0 2017 903" style="z-index:1;margin-right:-2px;display:block;background-repeat-y:initial;background-repeat-x:initial;background-color:rgb(0, 0, 0);animation-play-state:paused" ><g transform="" style="animation-play-state:paused" ><path id="path0" d="M 857.8709319647845 477.78439374189685
c 0 19.18589463845754 -4.694421028558759 5.510842077003762 -10.205263105562521 5.510842077003762
S 837.4604057536595 496.9702883803544 837.4604057536595 477.78439374189685
s 4.694421028558759 -5.510842077003762 10.205263105562521 -5.510842077003762
S 857.8709319647845 458.5984991034393 857.8709319647845 477.78439374189685
z" fill="none" stroke="none" style="animation-play-state:paused" ></path>


<circle cx="0" cy="0" r="5.88505993296866" fill="#ff708e" transform="translate(857.8692016601562 477.3398742675781)" style="animation-play-state:paused" ></circle>
<path id="path1" d="M 799.7024566268835 183.0414039170226
c 0 29.265778273435973 -7.160775534989653 8.406127801944375 -15.566903336934029 8.406127801944375
S 768.5686499530154 212.30718219045858 768.5686499530154 183.0414039170226
s 7.160775534989653 -8.406127801944375 15.566903336934029 -8.406127801944375
S 799.7024566268835 153.7756256435866 799.7024566268835 183.0414039170226
z" fill="none" stroke="none" style="animation-play-state:paused" ></path>


<circle cx="0" cy="0" r="6.617233971777196" fill="#e0ff77" transform="translate(798.3050537109375 197.06570434570312)" style="animation-play-state:paused" ></circle>
<path id="path2" d="M 502.4673964339691 256.8230140825423
c 0 30.21095823184917 -7.392042971622668 8.677615662339655 -16.069658633962323 8.677615662339655
S 470.32807916604446 287.03397231439146 470.32807916604446 256.8230140825423
s 7.392042971622668 -8.677615662339655 16.069658633962323 -8.677615662339655
S 502.4673964339691 226.6120558506931 502.4673964339691 256.8230140825423
z" fill="none" stroke="none" style="animation-play-state:paused" ></path>


<circle cx="0" cy="0" r="6.8938256974636785" fill="#e0ff77" transform="translate(473.8585205078125 240.7172088623047)" style="animation-play-state:paused" ></circle>
<path id="path3" d="M 1461.245006235079 32.10201267968024
c 0 21.283669872487398 -5.20770645816181 6.113394537842125 -11.321100996003935 6.113394537842125
S 1438.6028042430712 53.38568255216764 1438.6028042430712 32.10201267968024
s 5.20770645816181 -6.113394537842125 11.321100996003935 -6.113394537842125
S 1461.245006235079 10.818342807192845 1461.245006235079 32.10201267968024
z" fill="none" stroke="none" style="animation-play-state:paused" ></path>


<circle cx="0" cy="0" r="6.42581631862636" fill="#e0ff77" transform="translate(1438.6309814453125 29.603055953979492)" style="animation-play-state:paused" ></circle>
<path id="path4" d="M 1144.0890514568941 382.11030754943914
c 0 21.805578650543573 -5.335407542154278 6.263304506007197 -11.598712048161474 6.263304506007197
S 1120.891627360571 403.9158861999827 1120.891627360571 382.11030754943914
s 5.335407542154278 -6.263304506007197 11.598712048161474 -6.263304506007197
S 1144.0890514568941 360.3047288988956 1144.0890514568941 382.11030754943914
z" fill="none" stroke="none" style="animation-play-state:paused" ></path>


<circle cx="0" cy="0" r="6.021062286568599" fill="#e0ff77" transform="translate(1121.1329345703125 388.6383361816406)" style="animation-play-state:paused" ></circle>
<path id="path5" d="M 1954.2892740335944 666.966916556103
c 0 29.487504286827377 -7.215027644649251 8.469815061109992 -15.684842705759243 8.469815061109992
S 1922.9195886220762 696.4544208429304 1922.9195886220762 666.966916556103
s 7.215027644649251 -8.469815061109992 15.684842705759243 -8.469815061109992
S 1954.2892740335944 637.4794122692756 1954.2892740335944 666.966916556103
z" fill="none" stroke="none" style="animation-play-state:paused" ></path>


<circle cx="0" cy="0" r="4.57664183682248" fill="#ff708e" transform="translate(1954.2060546875 662.010498046875)" style="animation-play-state:paused" ></circle>
<path id="path6" d="M 85.58583565679652 201.53027046301446
c 0 30.932286932186003 -7.568538291917851 8.884805820947044 -16.453344112864894 8.884805820947044
S 52.679147431066724 232.46255739520046 52.679147431066724 201.53027046301446
s 7.568538291917851 -8.884805820947044 16.453344112864894 -8.884805820947044
S 85.58583565679652 170.59798353082846 85.58583565679652 201.53027046301446
z" fill="none" stroke="none" style="animation-play-state:paused" ></path>


<circle cx="0" cy="0" r="6.0322440952717375" fill="#de9dd6" transform="translate(52.72888946533203 205.55636596679688)" style="animation-play-state:paused" ></circle>
<path id="path7" d="M 778.806046524755 361.63385866715214
c 0 23.945017854347803 -5.858887347340419 6.8778242773126665 -12.736711624653086 6.8778242773126665
S 753.3326232754487 385.5788765214999 753.3326232754487 361.63385866715214
s 5.858887347340419 -6.8778242773126665 12.736711624653086 -6.8778242773126665
S 778.806046524755 337.68884081280436 778.806046524755 361.63385866715214
z" fill="none" stroke="none" style="animation-play-state:paused" ></path>


<circle cx="0" cy="0" r="6.3354451860892524" fill="#9df871" transform="translate(778.8017578125 362.7225341796875)" style="animation-play-state:paused" ></circle>
<path id="path8" d="M 1467.440937076844 506.1488324980307
c 0 31.320169773814342 -7.66344579572053 8.99621897758497 -16.6596647733055 8.99621897758497
S 1434.1216075302332 537.469002271845 1434.1216075302332 506.1488324980307
s 7.66344579572053 -8.99621897758497 16.6596647733055 -8.99621897758497
S 1467.440937076844 474.8286627242163 1467.440937076844 506.1488324980307
z" fill="none" stroke="none" style="animation-play-state:paused" ></path>


<circle cx="0" cy="0" r="4.672989942082445" fill="#51cacc" transform="translate(1467.380126953125 510.5799560546875)" style="animation-play-state:paused" ></circle>
<path id="path9" d="M 541.4518308705792 445.0153763930315
c 0 20.380595173502748 -4.986741372240034 5.854000741325258 -10.840742113565291 5.854000741325258
S 519.7703466434486 465.39597156653423 519.7703466434486 445.0153763930315
s 4.986741372240034 -5.854000741325258 10.840742113565291 -5.854000741325258
S 541.4518308705792 424.63478121952875 541.4518308705792 445.0153763930315
z" fill="none" stroke="none" style="animation-play-state:paused" ></path>


<circle cx="0" cy="0" r="6.121687038932013" fill="#9df871" transform="translate(534.8930053710938 437.1137390136719)" style="animation-play-state:paused" ></circle></g></svg>