<?xml version="1.0" encoding="utf-8"?><svg xmlns="http://www.w3.org/2000/svg" xmlns:xlink="http://www.w3.org/1999/xlink" width="1360" height="625" preserveAspectRatio="xMidYMid" viewBox="0 0 1360 625" style="z-index:1;margin-right:-2px;display:block;background-repeat-y:initial;background-repeat-x:initial;background-color:rgb(255, 255, 255);animation-play-state:paused" ><g transform="" style="animation-play-state:paused" ><path id="path0" d="M 1359.114709864665 458.0381740154266
c 0 23.14745014073565 -5.663737800392765 6.648735678721942 -12.312473479114708 6.648735678721942
S 1334.4897629064355 481.18562415616225 1334.4897629064355 458.0381740154266
s 5.663737800392765 -6.648735678721942 12.312473479114708 -6.648735678721942
S 1359.114709864665 434.89072387469093 1359.114709864665 458.0381740154266
z" fill="none" stroke="none" style="animation-play-state:paused" ></path>


<circle cx="0" cy="0" r="4.229931697665165" fill="#e0ff77" transform="translate(1358.478759765625 467.5873718261719)" style="animation-play-state:paused" ></circle>
<path id="path1" d="M 835.6536270189418 563.7391754917021
c 0 21.811609552129976 -5.336883188287121 6.265036786250099 -11.601919974537221 6.265036786250099
S 812.4497870698675 585.5507850438321 812.4497870698675 563.7391754917021
s 5.336883188287121 -6.265036786250099 11.601919974537221 -6.265036786250099
S 835.6536270189418 541.9275659395721 835.6536270189418 563.7391754917021
z" fill="none" stroke="none" style="animation-play-state:paused" ></path>


<circle cx="0" cy="0" r="2.9545731441918646" fill="#9df871" transform="translate(827.06689453125 556.4359130859375)" style="animation-play-state:paused" ></circle>
<path id="path2" d="M 97.41844237592488 178.8023570195198
c 0 29.724321069694174 -7.272972176627297 8.537836902997263 -15.810809079624558 8.537836902997263
S 65.79682421667576 208.526678089214 65.79682421667576 178.8023570195198
s 7.272972176627297 -8.537836902997263 15.810809079624558 -8.537836902997263
S 97.41844237592488 149.07803594982562 97.41844237592488 178.8023570195198
z" fill="none" stroke="none" style="animation-play-state:paused" ></path>


<circle cx="0" cy="0" r="4.442660522229582" fill="#51cacc" transform="translate(67.61603546142578 193.7808380126953)" style="animation-play-state:paused" ></circle>
<path id="path3" d="M 1198.5126683696938 412.6145584962622
c 0 36.360844567956 -8.896802394287105 10.444072375902255 -19.34087477018936 10.444072375902255
S 1159.830918829315 448.9754030642182 1159.830918829315 412.6145584962622
s 8.896802394287105 -10.444072375902255 19.34087477018936 -10.444072375902255
S 1198.5126683696938 376.2537139283062 1198.5126683696938 412.6145584962622
z" fill="none" stroke="none" style="animation-play-state:paused" ></path>


<circle cx="0" cy="0" r="2.554016246237106" fill="#51cacc" transform="translate(1174.4049072265625 424.6282958984375)" style="animation-play-state:paused" ></circle>
<path id="path4" d="M 1311.3480336930004 372.2539955674993
c 0 25.217063753799376 -6.170132620610485 7.243199163325353 -13.413331783935838 7.243199163325353
S 1284.521370125129 397.4710593212987 1284.521370125129 372.2539955674993
s 6.170132620610485 -7.243199163325353 13.413331783935838 -7.243199163325353
S 1311.3480336930004 347.03693181369994 1311.3480336930004 372.2539955674993
z" fill="none" stroke="none" style="animation-play-state:paused" ></path>


<circle cx="0" cy="0" r="2.5885344491118305" fill="#de9dd6" transform="translate(1290.062744140625 360.2810363769531)" style="animation-play-state:paused" ></circle>
<path id="path5" d="M 89.79318477426125 268.89906346008013
c 0 29.748070160984792 -7.278783124496278 8.544658450495632 -15.82344157499191 8.544658450495632
S 58.14630162427742 298.64713362106494 58.14630162427742 268.89906346008013
s 7.278783124496278 -8.544658450495632 15.82344157499191 -8.544658450495632
S 89.79318477426125 239.15099329909535 89.79318477426125 268.89906346008013
z" fill="none" stroke="none" style="animation-play-state:paused" ></path>


<circle cx="0" cy="0" r="4.3809226273988155" fill="#de9dd6" transform="translate(89.79316711425781 268.8907775878906)" style="animation-play-state:paused" ></circle>
<path id="path6" d="M 90.91506395525565 421.6084908163088
c 0 30.760621324799793 -7.526535005004204 8.835497614570153 -16.362032619574357 8.835497614570153
S 58.190998716106925 452.3691121411086 58.190998716106925 421.6084908163088
s 7.526535005004204 -8.835497614570153 16.362032619574357 -8.835497614570153
S 90.91506395525565 390.847869491509 90.91506395525565 421.6084908163088
z" fill="none" stroke="none" style="animation-play-state:paused" ></path>


<circle cx="0" cy="0" r="2.9161991453601717" fill="#51cacc" transform="translate(73.13509368896484 430.62396240234375)" style="animation-play-state:paused" ></circle>
<path id="path7" d="M 587.94059058283 442.80781780423825
c 0 32.75384485914036 -8.014238635747107 9.408019268050953 -17.422257903798062 9.408019268050953
S 553.096074775234 475.5616626633786 553.096074775234 442.80781780423825
s 8.014238635747107 -9.408019268050953 17.422257903798062 -9.408019268050953
S 587.94059058283 410.0539729450979 587.94059058283 442.80781780423825
z" fill="none" stroke="none" style="animation-play-state:paused" ></path>


<circle cx="0" cy="0" r="4.433370842980336" fill="#51cacc" transform="translate(556.9212036132812 425.3460693359375)" style="animation-play-state:paused" ></circle>
<path id="path8" d="M 1146.8682977034666 385.3520252819556
c 0 21.773001495862175 -5.327436536221596 6.253947238173178 -11.581383774394773 6.253947238173178
S 1123.7055301546773 407.12502677781777 1123.7055301546773 385.3520252819556
s 5.327436536221596 -6.253947238173178 11.581383774394773 -6.253947238173178
S 1146.8682977034666 363.57902378609344 1146.8682977034666 385.3520252819556
z" fill="none" stroke="none" style="animation-play-state:paused" ></path>


<circle cx="0" cy="0" r="3.677116030441969" fill="#de9dd6" transform="translate(1123.9193115234375 391.57025146484375)" style="animation-play-state:paused" ></circle>
<path id="path9" d="M 1300.1894920979728 584.5582245450877
c 0 32.24410771711542 -7.889515718017601 9.26160540810762 -17.151121126125222 9.26160540810762
S 1265.8872498457224 616.8023322622031 1265.8872498457224 584.5582245450877
s 7.889515718017601 -9.26160540810762 17.151121126125222 -9.26160540810762
S 1300.1894920979728 552.3141168279723 1300.1894920979728 584.5582245450877
z" fill="none" stroke="none" style="animation-play-state:paused" ></path>


<circle cx="0" cy="0" r="4.12413061831119" fill="#e0ff77" transform="translate(1300.090087890625 578.9298706054688)" style="animation-play-state:paused" ></circle></g></svg>