<svg xmlns="http://www.w3.org/2000/svg" width="2017" height="903" preserveAspectRatio="xMidYMid" style="z-index:1;margin-right:-2px;background-repeat-y:initial;background-repeat-x:initial;background-color:#000;animation-play-state:paused" display="block"><g style="animation-play-state:paused"><path d="M857.87 477.784c0 19.186-4.693 5.511-10.204 5.511s-10.206 13.675-10.206-5.51 4.695-5.511 10.206-5.511 10.205-13.676 10.205 5.51z" fill="none" style="animation-play-state:paused"/><circle r="5.885" fill="#ff708e" transform="translate(857.87 477.34)" style="animation-play-state:paused"/><path d="M799.702 183.041c0 29.266-7.16 8.407-15.566 8.407s-15.567 20.86-15.567-8.407 7.16-8.406 15.567-8.406 15.566-20.86 15.566 8.406z" fill="none" style="animation-play-state:paused"/><circle r="6.617" fill="#e0ff77" transform="translate(798.305 197.066)" style="animation-play-state:paused"/><path d="M502.467 256.823c0 30.211-7.392 8.678-16.07 8.678s-16.069 21.533-16.069-8.678 7.392-8.678 16.07-8.678 16.07-21.533 16.07 8.678z" fill="none" style="animation-play-state:paused"/><circle r="6.894" fill="#e0ff77" transform="translate(473.859 240.717)" style="animation-play-state:paused"/><path d="M1461.245 32.102c0 21.284-5.208 6.113-11.321 6.113s-11.321 15.17-11.321-6.113 5.208-6.113 11.32-6.113 11.322-15.17 11.322 6.113z" fill="none" style="animation-play-state:paused"/><circle r="6.426" fill="#e0ff77" transform="translate(1438.631 29.603)" style="animation-play-state:paused"/><path d="M1144.09 382.11c0 21.806-5.336 6.264-11.6 6.264s-11.598 15.542-11.598-6.264 5.335-6.263 11.598-6.263 11.6-15.542 11.6 6.263z" fill="none" style="animation-play-state:paused"/><circle r="6.021" fill="#e0ff77" transform="translate(1121.133 388.638)" style="animation-play-state:paused"/><path d="M1954.29 666.967c0 29.487-7.216 8.47-15.686 8.47s-15.684 21.017-15.684-8.47 7.215-8.47 15.684-8.47 15.685-21.018 15.685 8.47z" fill="none" style="animation-play-state:paused"/><circle r="4.577" fill="#ff708e" transform="translate(1954.206 662.01)" style="animation-play-state:paused"/><path d="M85.586 201.53c0 30.933-7.569 8.885-16.454 8.885S52.68 232.463 52.68 201.53s7.569-8.885 16.453-8.885 16.454-22.047 16.454 8.885z" fill="none" style="animation-play-state:paused"/><circle r="6.032" fill="#de9dd6" transform="translate(52.729 205.556)" style="animation-play-state:paused"/><path d="M778.806 361.634c0 23.945-5.859 6.878-12.737 6.878s-12.736 17.067-12.736-6.878 5.859-6.878 12.736-6.878 12.737-17.067 12.737 6.878z" fill="none" style="animation-play-state:paused"/><circle r="6.335" fill="#9df871" transform="translate(778.802 362.723)" style="animation-play-state:paused"/><path d="M1467.44 506.149c0 31.32-7.663 8.996-16.659 8.996s-16.66 22.324-16.66-8.996 7.664-8.996 16.66-8.996 16.66-22.324 16.66 8.996z" fill="none" style="animation-play-state:paused"/><circle r="4.673" fill="#51cacc" transform="translate(1467.38 510.58)" style="animation-play-state:paused"/><path d="M541.452 445.015c0 20.381-4.987 5.854-10.84 5.854s-10.842 14.527-10.842-5.854 4.987-5.854 10.841-5.854 10.84-14.526 10.84 5.854z" fill="none" style="animation-play-state:paused"/><circle r="6.122" fill="#9df871" transform="translate(534.893 437.114)" style="animation-play-state:paused"/></g></svg>