<svg xmlns="http://www.w3.org/2000/svg" width="1360" height="625" preserveAspectRatio="xMidYMid" style="z-index:1;margin-right:-2px;background-repeat-y:initial;background-repeat-x:initial;background-color:#fff;animation-play-state:paused" display="block"><g style="animation-play-state:paused"><path d="M1359.115 458.038c0 23.148-5.664 6.649-12.313 6.649s-12.312 16.499-12.312-6.649 5.664-6.649 12.312-6.649 12.313-16.498 12.313 6.65z" fill="none" style="animation-play-state:paused"/><circle r="4.23" fill="#e0ff77" transform="translate(1358.479 467.587)" style="animation-play-state:paused"/><path d="M835.654 563.74c0 21.81-5.337 6.264-11.602 6.264s-11.602 15.547-11.602-6.265 5.337-6.265 11.602-6.265 11.602-15.546 11.602 6.265z" fill="none" style="animation-play-state:paused"/><circle r="2.955" fill="#9df871" transform="translate(827.067 556.436)" style="animation-play-state:paused"/><path d="M97.418 178.802c0 29.725-7.273 8.538-15.81 8.538s-15.811 21.187-15.811-8.538 7.273-8.537 15.81-8.537 15.811-21.187 15.811 8.537z" fill="none" style="animation-play-state:paused"/><circle r="4.443" fill="#51cacc" transform="translate(67.616 193.78)" style="animation-play-state:paused"/><path d="M1198.513 412.615c0 36.36-8.897 10.444-19.341 10.444s-19.341 25.916-19.341-10.444 8.897-10.445 19.34-10.445 19.342-25.916 19.342 10.445z" fill="none" style="animation-play-state:paused"/><circle r="2.554" fill="#51cacc" transform="translate(1174.405 424.628)" style="animation-play-state:paused"/><path d="M1311.348 372.254c0 25.217-6.17 7.243-13.413 7.243s-13.414 17.974-13.414-7.243 6.17-7.243 13.414-7.243 13.413-17.974 13.413 7.243z" fill="none" style="animation-play-state:paused"/><circle r="2.589" fill="#de9dd6" transform="translate(1290.063 360.281)" style="animation-play-state:paused"/><path d="M89.793 268.9c0 29.747-7.279 8.544-15.823 8.544s-15.824 21.203-15.824-8.545 7.28-8.545 15.824-8.545 15.823-21.203 15.823 8.545z" fill="none" style="animation-play-state:paused"/><circle r="4.381" fill="#de9dd6" transform="translate(89.793 268.89)" style="animation-play-state:paused"/><path d="M90.915 421.608c0 30.761-7.526 8.836-16.362 8.836s-16.362 21.925-16.362-8.836 7.527-8.835 16.362-8.835 16.362-21.925 16.362 8.835z" fill="none" style="animation-play-state:paused"/><circle r="2.916" fill="#51cacc" transform="translate(73.135 430.624)" style="animation-play-state:paused"/><path d="M587.94 442.808c0 32.754-8.014 9.408-17.422 9.408s-17.422 23.346-17.422-9.408 8.014-9.408 17.422-9.408 17.423-23.346 17.423 9.408z" fill="none" style="animation-play-state:paused"/><circle r="4.433" fill="#51cacc" transform="translate(556.921 425.346)" style="animation-play-state:paused"/><path d="M1146.868 385.352c0 21.773-5.327 6.254-11.581 6.254s-11.581 15.519-11.581-6.254 5.327-6.254 11.58-6.254 11.582-15.519 11.582 6.254z" fill="none" style="animation-play-state:paused"/><circle r="3.677" fill="#de9dd6" transform="translate(1123.92 391.57)" style="animation-play-state:paused"/><path d="M1300.19 584.558c0 32.244-7.89 9.262-17.152 9.262s-17.15 22.982-17.15-9.262 7.889-9.261 17.15-9.261 17.151-22.983 17.151 9.261z" fill="none" style="animation-play-state:paused"/><circle r="4.124" fill="#e0ff77" transform="translate(1300.09 578.93)" style="animation-play-state:paused"/></g></svg>